<svg version="1.1" id="Layer_1" xmlns="http://www.w3.org/2000/svg" xmlns:xlink="http://www.w3.org/1999/xlink" x="0px" y="0px"
	 width="100%" viewBox="0 0 277 277" enable-background="new 0 0 277 277" xml:space="preserve">
<path fill="#000000" opacity="1.000000" stroke="none" 
	d="
M178.000000,278.000000 
	C118.693222,278.000000 59.886448,278.000000 1.039835,278.000000 
	C1.039835,185.734909 1.039835,93.469810 1.039835,1.102352 
	C93.223320,1.102352 185.446793,1.102352 277.835144,1.102352 
	C277.835144,93.333092 277.835144,185.666519 277.835144,278.000000 
	C244.803329,278.000000 211.651657,278.000000 178.000000,278.000000 
M149.018494,115.147667 
	C147.976379,108.877724 146.636887,102.727997 141.976257,97.205070 
	C138.733002,93.466515 136.476471,88.368843 130.177048,88.866943 
	C129.537811,88.917488 128.505646,88.216232 128.202484,87.596458 
	C126.579376,84.278099 123.756699,84.889435 120.244942,84.768112 
	C118.482727,84.510986 116.720787,84.031731 114.958260,84.029533 
	C79.844833,83.985809 44.731346,83.996803 9.617869,83.998932 
	C8.286668,83.999008 6.917929,83.826820 5.632397,84.075127 
	C3.251114,84.535080 2.055585,85.720940 4.282249,88.680382 
	C5.569893,89.678429 7.153625,90.454521 8.095832,91.711502 
	C13.184392,98.500008 18.140360,105.388741 23.088926,112.281059 
	C26.314493,116.773590 27.150103,116.864357 31.925352,112.964706 
	C58.282803,112.915535 84.640251,112.866356 111.795883,112.941093 
	C114.522690,113.702248 117.633186,113.901886 119.846619,115.414345 
	C121.423584,116.491890 121.826218,119.321922 122.693573,121.394714 
	C123.603615,123.569504 120.725624,134.380310 118.823593,135.493668 
	C118.040504,135.952057 116.935181,135.921555 115.967705,135.989594 
	C114.320534,136.105408 112.666481,136.123352 110.084976,136.040787 
	C92.427834,136.029541 74.770638,135.998230 57.113655,136.045715 
	C55.728020,136.049438 54.343861,136.602417 52.098724,136.974686 
	C50.151829,136.974686 48.204933,136.974686 45.507324,136.974686 
	C46.272659,138.700348 46.516666,139.826569 47.166649,140.620346 
	C50.736362,144.979797 54.421436,149.244492 58.037525,153.566299 
	C69.912506,167.758820 81.723190,182.005554 93.666069,196.140640 
	C98.829628,202.252029 104.342506,208.067566 109.535187,214.155258 
	C113.527519,218.835724 117.245529,223.749588 121.162048,228.496552 
	C121.460876,228.858734 122.369362,228.717896 123.924103,228.947891 
	C133.600937,228.906067 143.277756,228.864227 153.652618,228.731964 
	C157.877960,226.176483 158.032043,224.980484 154.440231,221.987350 
	C153.568619,221.261032 152.316589,220.883926 151.659088,220.025055 
	C146.733551,213.590881 141.905838,207.081680 137.061859,200.585266 
	C130.756775,192.129333 122.832703,185.024612 116.816505,176.330704 
	C114.183128,172.525238 111.611046,168.677353 109.877808,164.968918 
	C115.619507,163.999908 121.361198,163.030914 127.768509,161.729614 
	C140.950806,156.436600 147.279144,148.208801 149.738281,134.557556 
	C149.526917,128.359695 149.315536,122.161827 149.018494,115.147667 
M127.852478,179.412247 
	C127.756485,179.948471 127.380692,180.712921 127.604980,180.987900 
	C135.435974,190.588257 143.279755,200.179337 151.261719,209.653793 
	C152.194489,210.760986 153.934326,211.188217 155.300018,211.930679 
	C155.866684,210.362396 156.904694,208.800003 156.924438,207.224869 
	C157.065826,195.946152 157.000000,184.664841 157.000000,173.000000 
	C159.186813,173.000000 160.975906,173.021805 162.764343,172.996704 
	C186.165741,172.668396 209.580200,172.698441 232.963104,171.854782 
	C245.723190,171.394394 256.489868,165.219162 265.782745,156.665726 
	C271.591125,151.319534 274.664917,144.313156 275.611755,136.684494 
	C277.202271,123.869110 275.445679,111.798080 266.230743,101.669807 
	C254.532394,88.811981 239.031021,84.758423 222.833054,84.221855 
	C197.542084,83.384064 172.202713,83.954567 146.884644,84.084114 
	C144.804138,84.094757 142.729706,85.295067 139.982513,86.151436 
	C147.089111,94.202087 152.077789,101.821503 154.043045,111.100861 
	C154.808517,114.715195 156.637100,116.231628 160.812393,116.136345 
	C175.962433,115.790573 191.126099,115.899078 206.282608,116.045357 
	C213.185181,116.111969 220.102264,116.452316 226.977066,117.067459 
	C232.668533,117.576714 237.633118,122.942642 237.999359,128.278976 
	C238.370575,133.688126 235.045532,138.308609 228.988831,139.954407 
	C225.126877,141.003845 221.077087,141.871017 217.102448,141.910690 
	C197.449066,142.106888 177.792358,142.055298 158.137695,141.940857 
	C155.164597,141.923553 153.025909,142.467758 152.084839,145.550339 
	C148.715805,156.586014 140.898239,163.187836 130.378525,166.896271 
	C119.685654,170.665741 119.563339,170.923981 127.852478,179.412247 
z"/>
<path fill="#FEFFFE" opacity="1.000000" stroke="none" 
	d="
M127.604675,179.169724 
	C119.563339,170.923981 119.685654,170.665741 130.378525,166.896271 
	C140.898239,163.187836 148.715805,156.586014 152.084839,145.550339 
	C153.025909,142.467758 155.164597,141.923553 158.137695,141.940857 
	C177.792358,142.055298 197.449066,142.106888 217.102448,141.910690 
	C221.077087,141.871017 225.126877,141.003845 228.988831,139.954407 
	C235.045532,138.308609 238.370575,133.688126 237.999359,128.278976 
	C237.633118,122.942642 232.668533,117.576714 226.977066,117.067459 
	C220.102264,116.452316 213.185181,116.111969 206.282608,116.045357 
	C191.126099,115.899078 175.962433,115.790573 160.812393,116.136345 
	C156.637100,116.231628 154.808517,114.715195 154.043045,111.100861 
	C152.077789,101.821503 147.089111,94.202087 139.982513,86.151436 
	C142.729706,85.295067 144.804138,84.094757 146.884644,84.084114 
	C172.202713,83.954567 197.542084,83.384064 222.833054,84.221855 
	C239.031021,84.758423 254.532394,88.811981 266.230743,101.669807 
	C275.445679,111.798080 277.202271,123.869110 275.611755,136.684494 
	C274.664917,144.313156 271.591125,151.319534 265.782745,156.665726 
	C256.489868,165.219162 245.723190,171.394394 232.963104,171.854782 
	C209.580200,172.698441 186.165741,172.668396 162.764343,172.996704 
	C160.975906,173.021805 159.186813,173.000000 157.000000,173.000000 
	C157.000000,184.664841 157.065826,195.946152 156.924438,207.224869 
	C156.904694,208.800003 155.866684,210.362396 155.300018,211.930664 
	C153.934326,211.188217 152.194489,210.760986 151.261719,209.653793 
	C143.279755,200.179337 135.435974,190.588257 127.604980,180.987900 
	C127.380692,180.712921 127.756485,179.948471 127.604675,179.169724 
z"/>
<path fill="#CD151D" opacity="1.000000" stroke="none" 
	d="
M30.995600,112.830414 
	C27.150103,116.864357 26.314493,116.773590 23.088926,112.281059 
	C18.140360,105.388741 13.184392,98.500008 8.095832,91.711502 
	C7.153625,90.454521 5.569893,89.678429 4.396921,88.073418 
	C6.476104,87.310013 8.440507,87.018715 10.405141,87.017159 
	C45.437088,86.989510 80.469147,87.024437 115.500809,86.919426 
	C117.333992,86.913940 119.163803,85.782974 120.995186,85.175980 
	C123.756699,84.889435 126.579376,84.278099 128.202484,87.596458 
	C128.505646,88.216232 129.537811,88.917488 130.177048,88.866943 
	C136.476471,88.368843 138.733002,93.466515 141.996674,97.957886 
	C144.011642,104.805771 146.006180,110.900833 148.001129,117.463821 
	C148.354568,123.651604 148.707626,129.371475 149.060669,135.091339 
	C147.279144,148.208801 140.950806,156.436600 127.079407,161.738037 
	C122.063400,162.075851 117.716743,162.254166 113.420128,162.815475 
	C111.888069,163.015625 110.477280,164.144043 109.011139,164.848740 
	C111.611046,168.677353 114.183128,172.525238 116.816505,176.330704 
	C122.832703,185.024612 130.756775,192.129333 137.061859,200.585266 
	C141.905838,207.081680 146.733551,213.590881 151.659088,220.025055 
	C152.316589,220.883926 153.568619,221.261032 154.440231,221.987350 
	C158.032043,224.980484 157.877960,226.176483 153.042801,228.506409 
	C151.525055,227.883743 150.626434,227.166397 149.707764,227.139755 
	C141.769547,226.909470 133.827484,226.728561 125.887390,226.757767 
	C124.920578,226.761322 123.958656,228.094116 122.994469,228.810867 
	C122.369362,228.717896 121.460876,228.858734 121.162048,228.496552 
	C117.245529,223.749588 113.527519,218.835724 109.535187,214.155258 
	C104.342506,208.067566 98.829628,202.252029 93.666069,196.140640 
	C81.723190,182.005554 69.912506,167.758820 58.037525,153.566299 
	C54.421436,149.244492 50.736362,144.979797 47.166649,140.620346 
	C46.516666,139.826569 46.272659,138.700348 45.507324,136.974686 
	C48.204933,136.974686 50.151829,136.974686 52.720745,137.293991 
	C54.350487,138.071777 55.356289,138.925064 56.366215,138.929962 
	C73.569763,139.013657 90.774292,139.040146 107.976624,138.873734 
	C108.998100,138.863861 110.002808,137.119629 111.015320,136.182434 
	C112.666481,136.123352 114.320534,136.105408 115.967705,135.989594 
	C116.935181,135.921555 118.040504,135.952057 118.823593,135.493668 
	C120.725624,134.380310 123.603615,123.569504 122.693573,121.394714 
	C121.826218,119.321922 121.423584,116.491890 119.846619,115.414345 
	C117.633186,113.901886 114.522690,113.702248 111.288254,112.498810 
	C109.752296,111.704948 108.724678,111.048851 107.695518,111.046425 
	C83.295685,110.988838 58.895580,110.976303 34.496044,111.079124 
	C33.326790,111.084053 32.162304,112.220764 30.995600,112.830414 
z"/>
<path fill="#CB0612" opacity="1.000000" stroke="none" 
	d="
M120.620064,84.972046 
	C119.163803,85.782974 117.333992,86.913940 115.500809,86.919426 
	C80.469147,87.024437 45.437088,86.989510 10.405141,87.017159 
	C8.440507,87.018715 6.476104,87.310013 4.222138,87.778793 
	C2.055585,85.720940 3.251114,84.535080 5.632397,84.075127 
	C6.917929,83.826820 8.286668,83.999008 9.617869,83.998932 
	C44.731346,83.996803 79.844833,83.985809 114.958260,84.029533 
	C116.720787,84.031731 118.482727,84.510986 120.620064,84.972046 
z"/>
<path fill="#C20C10" opacity="1.000000" stroke="none" 
	d="
M110.550156,136.111603 
	C110.002808,137.119629 108.998100,138.863861 107.976624,138.873734 
	C90.774292,139.040146 73.569763,139.013657 56.366215,138.929962 
	C55.356289,138.925064 54.350487,138.071777 53.150890,137.256699 
	C54.343861,136.602417 55.728020,136.049438 57.113655,136.045715 
	C74.770638,135.998230 92.427834,136.029541 110.550156,136.111603 
z"/>
<path fill="#CA0915" opacity="1.000000" stroke="none" 
	d="
M31.460476,112.897560 
	C32.162304,112.220764 33.326790,111.084053 34.496044,111.079124 
	C58.895580,110.976303 83.295685,110.988838 107.695518,111.046425 
	C108.724678,111.048851 109.752296,111.704948 110.889160,112.436844 
	C84.640251,112.866356 58.282803,112.915535 31.460476,112.897560 
z"/>
<path fill="#CB0713" opacity="1.000000" stroke="none" 
	d="
M123.459290,228.879379 
	C123.958656,228.094116 124.920578,226.761322 125.887390,226.757767 
	C133.827484,226.728561 141.769547,226.909470 149.707764,227.139755 
	C150.626434,227.166397 151.525055,227.883743 152.693787,228.551620 
	C143.277756,228.864227 133.600937,228.906067 123.459290,228.879379 
z"/>
<path fill="#CB0A14" opacity="1.000000" stroke="none" 
	d="
M148.000732,116.995895 
	C146.006180,110.900833 144.011642,104.805771 142.030212,98.302246 
	C146.636887,102.727997 147.976379,108.877724 148.824036,115.664711 
	C148.419968,116.453140 148.210342,116.724518 148.000732,116.995895 
z"/>
<path fill="#C50912" opacity="1.000000" stroke="none" 
	d="
M148.001129,117.463821 
	C148.210342,116.724518 148.419968,116.453140 148.866867,116.072861 
	C149.315536,122.161827 149.526917,128.359695 149.399475,134.824448 
	C148.707626,129.371475 148.354568,123.651604 148.001129,117.463821 
z"/>
<path fill="#C80813" opacity="1.000000" stroke="none" 
	d="
M109.444473,164.908829 
	C110.477280,164.144043 111.888069,163.015625 113.420128,162.815475 
	C117.716743,162.254166 122.063400,162.075851 126.746605,161.904190 
	C121.361198,163.030914 115.619507,163.999908 109.444473,164.908829 
z"/>
</svg>